<?xml version="1.0" encoding="iso-8859-1"?>
<!-- Uploaded to: SVG Repo, www.svgrepo.com, Generator: SVG Repo Mixer Tools -->
<svg height="800px" width="800px" version="1.1" id="Layer_1" xmlns="http://www.w3.org/2000/svg" xmlns:xlink="http://www.w3.org/1999/xlink" 
	 viewBox="0 0 508 508" xml:space="preserve">
<circle style="fill:#324A5E;" cx="254" cy="254" r="254"/>
<path style="fill:#2B3B4E;" d="M115.6,466.8c40,26,87.2,41.2,138.4,41.2s98.8-15.2,138.4-41.2H115.6z"/>
<g>
	<path style="fill:#F9B54C;" d="M299.6,443.6c-24.8-29.6-30-104-30.8-130.8H240c-1.2,26.8-6,101.2-30.8,130.8L299.6,443.6
		L299.6,443.6z"/>
	<path style="fill:#F9B54C;" d="M344.4,255.6c-4.8,6.4-3.6,15.6,2.8,20.4c3.2,2.4,6.8,3.6,10.8,2.8c4-0.4,7.2-2.4,9.6-5.6
		c1.6-2.4,4.8-2.8,7.2-0.8c2.4,1.6,2.8,4.8,0.8,7.2c-4,5.2-10,8.8-16.4,9.6c-1.2,0-2.4,0-3.2,0c-5.2,0-10.8-1.6-15.2-5.2
		c-10.8-8.4-12.8-24-4.8-34.8l78-102c5.2-6.8,7.2-14.8,6-23.2s-5.6-15.6-12.4-20.4c-13.2-9.6-32.4-6.4-42.4,7.2l-12,15.6
		c-0.8-4.4-1.6-8.8-2.8-13.2l6.4-8.4c13.6-17.6,38.8-21.6,56.4-9.2c9.2,6.4,15.2,16,16.8,27.2c1.6,11.2-1.2,22-8,30.8L344.4,255.6z"
		/>
	<path style="fill:#F9B54C;" d="M166.8,284c-4.4,3.2-9.6,5.2-15.2,5.2c-1.2,0-2.4,0-3.2,0c-6.4-0.8-12.4-4.4-16.4-9.6
		c-1.6-2.4-1.2-5.2,0.8-7.2c2.4-1.6,5.2-1.2,7.2,0.8c2.4,3.2,6,5.2,9.6,5.6c4,0.4,7.6-0.4,10.8-2.8c6.4-4.8,7.6-14,2.8-20.4
		l-77.6-102c-6.8-8.8-9.6-20-8-30.8c1.6-11.2,7.6-20.8,16.8-27.2c17.6-12.4,42.8-8.4,56.4,9.2l6.4,8.4c-1.2,4.4-2,8.8-2.8,13.2
		l-12-15.6c-10-13.2-29.2-16.4-42.4-7.2c-6.8,4.8-11.2,12-12.4,20.4c-1.2,8.4,0.8,16.4,6,23.2l78,102
		C180,260.4,177.6,275.6,166.8,284z"/>
</g>
<path style="fill:#FFD05B;" d="M170,76c-11.6,24.8-18.8,55.6-18.8,88.4c0,84.8,46,153.6,102.8,153.6s102.8-68.8,102.8-153.6
	c0-32.8-6.8-63.2-18.8-88.4C338,76,170,76,170,76z"/>
<path style="fill:#FFFFFF;" d="M192,168.4c0-7.2,0.4-14.4,1.2-21.2h-16.8c-0.8,6.8-1.2,14-1.2,21.2c0,70.4,38,127.6,85.2,127.6
	c2.8,0,5.6-0.4,8.4-0.8C226,289.2,192,234.8,192,168.4z"/>
<g>
	<circle style="fill:#FFD05B;" cx="254" cy="364.4" r="31.2"/>
	<path style="fill:#FFD05B;" d="M299.6,443.6h-91.2c-12.4,0-22.8,10.4-22.8,22.8l0,0h136.8l0,0C322.4,453.6,312.4,443.6,299.6,443.6
		z"/>
</g>
</svg>