<?xml version="1.0" encoding="iso-8859-1"?>
<!-- Uploaded to: SVG Repo, www.svgrepo.com, Generator: SVG Repo Mixer Tools -->
<svg version="1.1" id="Layer_1" xmlns="http://www.w3.org/2000/svg" xmlns:xlink="http://www.w3.org/1999/xlink" 
	 viewBox="0 0 512 512" xml:space="preserve">
<circle style="fill:#0F7986;" cx="256" cy="256" r="256"/>
<path style="fill:#EEF3F7;" d="M46.65,146.771c9.856-6.703,52.428-9.439,82.871,4.386c30.444,13.823,276.838,176.8,276.838,176.8
	l65.875-23.192l21.722,12.056l-68.868,53.465c-14.595,7.258-18.468,6.634-34.022-0.198
	C364.979,356.55,72.003,230.538,45.784,170.901C42.57,163.591,40.772,151.561,46.65,146.771L46.65,146.771z"/>
<path style="fill:#21D0C3;" d="M155.197,197.835l227.997,139.32l-1.126,1.855L152.944,201.544L155.197,197.835L155.197,197.835z"/>
<path style="fill:#FEFEFE;" d="M240.562,280.177l138.214,1.949l2.39-6.411l-30.886-21.253l-191.829-29.883l-3.413,8.958
	L240.562,280.177L240.562,280.177z"/>
<path style="fill:#D9DADA;" d="M239.332,283.477l139.445-1.352l-31.086-20.718l-192.653-27.871L239.332,283.477L239.332,283.477z"/>
<path style="fill:#FEFEFE;" d="M55.198,182.417c-2.265-1.684-7.55-9.507-7.472-8.719c17.618,47.844,308.808,184.829,348.508,198.592
	C313.031,329.592,151.999,254.371,55.198,182.417z"/>
<path style="fill:#FF5B62;" d="M147.817,172.223c10.35,5.041,14.653,17.52,9.611,27.871c-5.041,10.35-17.521,14.653-27.871,9.611
	c-10.351-5.043-14.653-17.521-9.611-27.871C124.989,171.483,137.467,167.179,147.817,172.223z"/>
<path style="fill:#FEFEFE;" d="M140.749,180.141l5.19,2.528l-3.391,6.961l6.961,3.392l-2.528,5.19l-6.961-3.391l-3.391,6.961
	l-5.191-2.528l3.391-6.961l-6.961-3.391l2.528-5.191l6.963,3.391L140.749,180.141z"/>
<g>
	<path style="fill:#15BDB2;" d="M89.696,141.686l12.422,9.548c2.241,1.721-6.446,3.851-10.214,3.413
		c-3.766-0.436-13.126-9.779-18.75-13.293C78.845,141.053,83.194,141.189,89.696,141.686L89.696,141.686z"/>
	<path style="fill:#15BDB2;" d="M213.537,231.499l27.42,15.854c6.152,3.557,8.276,11.5,4.719,17.652l-0.001,0.001
		c-3.557,6.153-11.5,8.276-17.652,4.719l-27.42-15.854L213.537,231.499L213.537,231.499z"/>
</g>
<rect x="203.943" y="228.941" transform="matrix(0.8657 0.5005 -0.5005 0.8657 149.8252 -71.3155)" style="fill:#FEFEFE;" width="7.776" height="29.293"/>
<path style="fill:#21D0C3;" d="M246.373,233.858l29.083,16.816c6.527,3.774,8.778,12.198,5.005,18.723v0.001
	c-3.774,6.525-12.198,8.778-18.723,5.005l-29.085-16.816L246.373,233.858L246.373,233.858z"/>
<g>
	
		<rect x="236.199" y="231.144" transform="matrix(0.8657 0.5005 -0.5005 0.8657 155.7352 -87.1633)" style="fill:#FEFEFE;" width="8.248" height="31.068"/>
	<path style="fill:#FEFEFE;" d="M412.073,363.349l48.84,0.689l0.845-2.266l-10.914-7.51l-67.786-10.559l-1.207,3.165
		L412.073,363.349L412.073,363.349z"/>
</g>
<path style="fill:#D9DADA;" d="M411.639,364.515l49.275-0.477l-10.984-7.322l-68.078-9.849L411.639,364.515z"/>
<path style="fill:#15BDB2;" d="M349.799,160.211c0.183,0,0.365,0.004,0.548,0.012c2.701-7.553,9.916-12.956,18.396-12.956
	c2.26,0,4.429,0.384,6.447,1.092c2.274-16.177,16.169-28.626,32.974-28.626c17.722,0,32.212,13.846,33.24,31.311
	c9.452,0.339,17.007,8.105,17.007,17.638c0,9.75-7.903,17.652-17.651,17.652c-31.268,0-59.871,0-90.961,0
	c-7.215,0-13.063-5.848-13.063-13.061C336.735,166.058,342.584,160.211,349.799,160.211z"/>
<path style="fill:#21D0C3;" d="M349.07,158.465c0.184,0,0.366,0.005,0.548,0.012c2.701-7.552,9.917-12.956,18.397-12.956
	c2.26,0,4.429,0.385,6.447,1.092c2.274-16.177,16.169-28.626,32.973-28.626c17.722,0,32.212,13.846,33.241,31.311
	c9.452,0.339,17.006,8.105,17.006,17.638c0,9.75-7.902,17.652-17.651,17.652c-31.267,0-59.871,0-90.961,0
	c-7.214,0-13.061-5.848-13.061-13.06C336.01,164.312,341.856,158.465,349.07,158.465z"/>
<path style="fill:#15BDB2;" d="M143.059,306.427c-0.13,0-0.258,0.004-0.386,0.009c-1.899-5.313-6.973-9.112-12.937-9.112
	c-1.589,0-3.116,0.271-4.535,0.768c-1.6-11.378-11.371-20.132-23.189-20.132c-12.465,0-22.655,9.738-23.377,22.02
	c-6.647,0.24-11.961,5.701-11.961,12.406c0,6.856,5.558,12.414,12.414,12.414c21.99,0,42.107,0,63.971,0
	c5.073,0,9.186-4.113,9.186-9.186C152.246,310.539,148.133,306.427,143.059,306.427L143.059,306.427z"/>
<path style="fill:#21D0C3;" d="M143.571,305.199c-0.13,0-0.258,0.004-0.385,0.008c-1.899-5.311-6.974-9.11-12.938-9.11
	c-1.589,0-3.116,0.269-4.535,0.768c-1.599-11.378-11.371-20.134-23.189-20.134c-12.465,0-22.655,9.739-23.377,22.021
	c-6.647,0.239-11.961,5.699-11.961,12.404c0,6.857,5.558,12.414,12.414,12.414c21.99,0,42.107,0,63.971,0
	c5.073,0,9.186-4.112,9.186-9.185C152.757,309.311,148.644,305.199,143.571,305.199L143.571,305.199z"/>
<g>
	<path style="fill:#EEF3F7;" d="M285.824,337.187l134.756,60.965l-0.963,2.147l-134.756-60.965L285.824,337.187z"/>
	<path style="fill:#EEF3F7;" d="M374.509,289l28.426,18.833l-1.073,1.62l-28.427-18.833L374.509,289z"/>
</g>
</svg>